# xmcd CD database file
#
# Track frame offsets:
#	150
#	25731
#	43224
#	62673
#	78113
#
# Disc length: 1131 seconds
#
# Revision: 0
# Processed by: cddbd v1.5.1PL0 Copyright (c) Steve Scherf et al.
# Submitted via: CDex 1.51
#
DISCID=34046905
DTITLE=大江戸宅急便 - 五つの風景
DYEAR=1900
DGENRE=Vocal
TTITLE0=冷たい雨
TTITLE1=お元気ですね -水村2005-
TTITLE2=幸せを語ることが出来る人
TTITLE3=エロゲー古今東西
TTITLE4=ぎょうざ
EXTD=
EXTT0=
EXTT1=
EXTT2=
EXTT3=
EXTT4=
PLAYORDER=
